<svg width="5024" height="3552" viewBox="0 0 5024 3552" fill="none" xmlns="http://www.w3.org/2000/svg">
<g clip-path="url(#clip0_2_2)">
<mask id="mask0_2_2" style="mask-type:luminance" maskUnits="userSpaceOnUse" x="-110" y="-1068" width="8331" height="5891">
<path d="M-110 -1067H8220.85V4822.96H-110V-1067Z" fill="white"/>
</mask>
<g mask="url(#mask0_2_2)">
<path d="M1639.62 1806.26C1594.64 1849.6 1532.65 1865.28 1475.62 1853.23C1475.62 1853.23 1475.38 1853.22 1475.15 1853.22C1470.5 1851.73 1466.08 1850.48 1461.19 1849.46C1461.19 1849.46 1460.96 1849.45 1460.72 1849.44C1417.43 1840.23 1370.23 1852.21 1335.96 1885.23C1302.41 1917.55 1288.71 1962.64 1295.4 2005.54C1296.21 2012.1 1297.73 2018.44 1299.48 2024.78C1308.7 2081.75 1290.98 2142.19 1246.25 2185.3C1203.41 2226.57 1145.38 2242.79 1090.63 2233.59C1079.04 2228.7 1066.95 2225.44 1054.82 2224.04C1014.72 2218.86 972.654 2231.4 941.235 2261.67C910.305 2291.48 895.985 2332.35 899.22 2372.14L899.206 2372.84C900.141 2385.48 902.948 2398.15 907.859 2410.17C914.556 2464.98 896.199 2522.14 853.604 2563.18C781.253 2632.89 665.847 2630.74 596.146 2558.39C526.441 2486.05 528.587 2370.63 600.929 2300.92C644.948 2258.5 705.074 2242.55 760.972 2253.17C769.094 2256.36 777.701 2258.63 786.316 2259.96C828.023 2267.04 872.422 2254.78 905.024 2223.13C936.918 2192.41 950.782 2150.36 946.64 2109.37C945.671 2098.61 943.301 2087.81 939.52 2077.46C936.837 2058.24 937.431 2039.08 941.282 2020.23C944.479 2011.64 946.987 2002.81 948.317 1993.95C957.213 1967.94 972.393 1943.44 993.576 1923.03C1013.09 1904 1035.79 1890.4 1059.78 1882.2C1072.88 1881.27 1086.02 1878.24 1098.73 1873.33C1115.83 1871.08 1133.12 1871.64 1150.12 1874.53C1161.48 1879.64 1173.58 1882.67 1185.47 1884.3C1226.03 1889.73 1268.33 1877.19 1299.98 1846.7C1330.92 1816.88 1345 1776.24 1342 1736.46C1341.09 1722.65 1338.08 1708.8 1332.7 1695.84C1330.66 1679.92 1330.96 1663.79 1333.59 1647.95C1339.44 1634.97 1342.97 1621.24 1344.4 1607.49C1348.87 1568.06 1336.31 1526.93 1306.5 1495.99C1275.32 1463.62 1232.57 1449.74 1191.12 1454.58C1180.35 1455.55 1169.55 1458.16 1158.96 1461.93C1140.91 1464.63 1122.93 1464.29 1104.99 1461.16C1093.85 1456.51 1082.23 1453.49 1070.33 1452.1C1045.73 1443 1022.63 1428.3 1003.14 1408.07C982.97 1387.14 968.935 1362.57 960.993 1336.71C960.029 1326.17 957.654 1315.62 954.107 1305.49C951.394 1287.69 951.732 1269.69 954.862 1251.99C959.265 1241.55 962.038 1230.62 963.174 1219.66C968.835 1179.09 956.301 1136.79 925.803 1105.13C894.404 1072.29 850.721 1058.4 808.782 1063.93C799.649 1064.92 790.734 1066.86 782.27 1069.75C726.253 1078.05 667.466 1059.89 625.28 1016.11C555.342 943.755 557.489 828.331 630.063 758.63C702.405 688.919 817.583 691.066 887.521 763.422C928.107 805.545 944.346 862.407 936.333 916.248C930.477 929.225 926.958 942.947 925.523 956.95C921.054 996.133 933.845 1037.27 963.43 1067.97C992.996 1098.91 1033.64 1112.98 1073.42 1109.98C1073.66 1109.99 1073.66 1109.99 1073.89 1109.99C1087.46 1109.08 1101.07 1105.82 1114.03 1100.69C1168.36 1094.69 1224.58 1113.03 1265.39 1155.38C1308.49 1200.13 1324.19 1261.19 1312.61 1318.01C1310.64 1323.81 1309.13 1329.86 1308.08 1335.92C1307.84 1336.15 1307.83 1336.38 1307.83 1336.62C1299.55 1379.23 1311.56 1425.03 1343.88 1458.82C1376.22 1492.38 1421.07 1506.07 1463.72 1499.61C1470.75 1498.81 1477.79 1497.31 1484.61 1495.09C1541.33 1486.1 1601.53 1504.05 1644.4 1548.79C1714.1 1621.13 1711.96 1736.32 1639.62 1806.26Z" fill="#50B488"/>
</g>
<mask id="mask1_2_2" style="mask-type:luminance" maskUnits="userSpaceOnUse" x="-110" y="-1067" width="8331" height="5890">
<path d="M-110 -1067H8220.85V4822.96H-110V-1067Z" fill="white"/>
</mask>
<g mask="url(#mask1_2_2)">
<path d="M873.415 1528.43C943.311 1600.87 941.164 1716.15 868.632 1785.93C796.091 1855.71 680.628 1853.56 610.732 1781.14C540.842 1708.7 542.979 1593.42 615.52 1523.64C688.051 1453.86 803.52 1456.01 873.415 1528.43Z" fill="#50B488"/>
</g>
</g>
<defs>
<clipPath id="clip0_2_2">
<rect width="5024" height="3552" fill="white"/>
</clipPath>
</defs>
</svg>
